<?xml version="1.0" encoding="UTF-8"?>
<svg id="Layer_2" data-name="Layer 2" xmlns="http://www.w3.org/2000/svg" viewBox="0 0 355.22 355.17">
  <defs>
    <style>
      .cls-1 {
        fill: #000;
      }
    </style>
  </defs>
  <g id="Layer_1-2" data-name="Layer 1">
    <path class="cls-1" d="M158.5.84c126.77-11.84,224.56,103.86,189.53,226.89-39.89,140.13-226.25,173.24-313.22,56.32C-46.45,174.78,22.62,13.52,158.5.84ZM156.62,23.24C63.47,32.74,3.89,129.89,27.2,218.81c28.03,106.96,162.62,151.14,248.37,80.28C396.44,199.21,315.66,7.02,156.62,23.24Z"/>
    <path class="cls-1" d="M164.26,37.85l11.43,35.28c5.17.74,2.86-.61,3.73-2.79,1.86-4.63,10.11-32.33,12.41-32.85,55.78,5.01,105.17,45.9,120.69,99.58,1.32,4.58,7.33,25.51,4.01,27.79l-34.4,11.01c-.74,5.17.61,2.86,2.79,3.73,4.63,1.86,32.33,10.11,32.85,12.41-5.01,55.78-45.9,105.17-99.58,120.69-4.58,1.32-25.51,7.33-27.79,4.01l-11.01-34.4c-5.17-.74-2.86.61-3.73,2.79-1.86,4.63-10.11,32.33-12.41,32.85-55.78-5.01-105.17-45.9-120.69-99.58-1.32-4.58-7.33-25.51-4.01-27.79l34.4-11.01c.74-5.17-.61-2.86-2.79-3.73-4.63-1.86-32.33-10.11-32.85-12.41,5.88-65.42,60.88-121.25,126.94-125.59ZM256,99.29l-99.84,57.99-57.05,98.9,99.84-57.99,57.05-98.9Z"/>
    <path class="cls-1" d="M173.31,163.16c21.89-4.78,25.69,25.4,8.49,29.15-21.89,4.78-25.69-25.4-8.49-29.15Z"/>
  </g>
</svg>